<svg width="120" height="18" viewBox="0 0 120 18" fill="none" xmlns="http://www.w3.org/2000/svg">
<g id="Group 3">
<g id="&#240;&#159;&#166;&#134; icon &#34;window maximize&#34;">
<path id="Vector" d="M50.3226 0.580627H69.6774V17.8185H50.3226V0.580627ZM52.7419 4.8901V15.6638H67.2581V4.8901H52.7419Z" fill="#361DC7"/>
</g>
<g id="&#240;&#159;&#166;&#134; icon &#34;window close&#34;">
<path id="Vector_2" d="M112.341 9.19957L120 16.0209V17.8185H117.982L110.323 10.9972L102.664 17.8185H100.645V16.0209L108.304 9.19957L100.645 2.37829V0.580627H102.664L110.323 7.40191L117.982 0.580627H120V2.37829L112.341 9.19957Z" fill="#361DC7"/>
</g>
<g id="&#240;&#159;&#166;&#134; icon &#34;Window Minimize&#34;">
<path id="Vector_3" d="M17.5403 13.509H1.81452C0.812752 13.509 0 14.2329 0 15.1251V16.2025C0 17.0947 0.812752 17.8185 1.81452 17.8185H17.5403C18.5421 17.8185 19.3548 17.0947 19.3548 16.2025V15.1251C19.3548 14.2329 18.5421 13.509 17.5403 13.509Z" fill="#361DC7"/>
</g>
</g>
</svg>
