<svg width="31" height="31" viewBox="0 0 31 31" fill="none" xmlns="http://www.w3.org/2000/svg">
<g id="&#240;&#159;&#166;&#134; icon &#34;star&#34;">
<path id="Vector" d="M22.4607 27.0087C22.2597 27.0095 22.0614 26.9621 21.8825 26.8704L15.4722 23.5144L9.06182 26.8704C8.85366 26.9799 8.61897 27.0287 8.38443 27.0115C8.14989 26.9942 7.9249 26.9114 7.73504 26.7726C7.54518 26.6338 7.39807 26.4446 7.31043 26.2263C7.22279 26.0081 7.19813 25.7696 7.23927 25.5381L8.4962 18.4616L3.31765 13.4338C3.15608 13.2726 3.04147 13.0704 2.98611 12.849C2.93075 12.6275 2.93673 12.3952 3.00342 12.1769C3.07627 11.9535 3.21028 11.755 3.39024 11.604C3.5702 11.4529 3.7889 11.3553 4.02153 11.3222L11.186 10.279L14.3409 3.8309C14.4438 3.61839 14.6045 3.43917 14.8046 3.31377C15.0047 3.18837 15.236 3.12186 15.4722 3.12186C15.7083 3.12186 15.9396 3.18837 16.1397 3.31377C16.3398 3.43917 16.5005 3.61839 16.6034 3.8309L19.796 10.2664L26.9605 11.3096C27.1931 11.3427 27.4118 11.4403 27.5918 11.5914C27.7717 11.7425 27.9058 11.941 27.9786 12.1643C28.0453 12.3826 28.0513 12.615 27.9959 12.8364C27.9406 13.0579 27.8259 13.26 27.6644 13.4213L22.4858 18.449L23.7428 25.5255C23.7876 25.7612 23.7641 26.0047 23.675 26.2274C23.586 26.4502 23.435 26.6427 23.24 26.7824C23.0124 26.9419 22.7383 27.0215 22.4607 27.0087Z" fill="#361DC7"/>
</g>
</svg>
