<svg width="50" height="49" viewBox="0 0 50 49" fill="none" xmlns="http://www.w3.org/2000/svg">
<g id="&#240;&#159;&#166;&#134; icon &#34;adobe dreamweaver&#34;">
<path id="Vector" d="M0 0V48.7453H50V0H0ZM2.08281 2.08437H47.9156V46.6641H2.08281V2.08437ZM6.51094 11.475C6.51094 11.3047 6.54375 11.2297 6.75469 11.1984C7.54375 11.1656 9.81563 11.1 12.1672 11.1C19.1422 11.1 22.6156 15.6 22.6156 22.2C22.6156 31.3797 16.5953 34.1547 11.9547 34.1547C10.2047 34.1547 7.65938 34.1234 6.72969 34.0906C6.59219 34.0906 6.52812 33.9844 6.52812 33.8141V11.4766L6.51094 11.475ZM10.2625 30.7859C10.8391 30.8281 11.3609 30.8594 12.0125 30.8594C15.8609 30.8594 18.7172 28.1422 18.75 22.3078C18.7922 16.5953 15.8375 14.3969 12.1672 14.3969C11.4422 14.3969 10.8562 14.4359 10.2719 14.4781V30.8031L10.2625 30.7859ZM36.6937 34.0563C36.45 34.0563 36.3859 33.9672 36.3516 33.7641C35.3187 28.0266 34.4562 23.9656 34.0812 21.1406H34.05C33.6016 23.6969 32.7703 27.9281 31.3953 33.8031C31.3313 34.0156 31.2656 34.0719 31.0953 34.0719H27.7266C27.4813 34.0719 27.4156 34.0406 27.3516 33.8281L23.6641 17.4141C23.6328 17.2766 23.7062 17.1375 23.9094 17.1375H27.2781C27.4156 17.1375 27.5219 17.1875 27.5547 17.325C28.8563 24.7141 29.4094 28.5391 29.6125 30.0547H29.75C29.9938 28.2625 30.7109 24.5438 32.2562 17.3906C32.3312 17.1891 32.3312 17.1297 32.5328 17.1297H36.0719C36.2422 17.1297 36.2766 17.2188 36.3172 17.3906C37.5219 24.1609 38.3109 28.4344 38.5125 30.1516H38.6187C38.9516 27.9563 39.4078 24.9844 40.8734 17.3516C40.9156 17.2125 40.9469 17.1313 41.1172 17.1313H44.2844C44.4219 17.1313 44.5281 17.2063 44.4641 17.3766L40.3703 33.8219C40.3375 33.9922 40.3062 34.0578 40.0687 34.0578L36.6937 34.0563Z" fill="#FF71F5"/>
</g>
</svg>
