<svg width="50" height="49" viewBox="0 0 50 49" fill="none" xmlns="http://www.w3.org/2000/svg">
<g id="&#240;&#159;&#166;&#134; icon &#34;adobe illustrator&#34;">
<path id="Vector" d="M0 0V48.7469H50V0H0ZM2.08281 2.08281H47.9156V46.6625H2.08281V2.08281ZM17.3422 27.6047L15.6906 33.8469C15.6578 34.0266 15.5922 34.0578 15.3891 34.0578H12.3297C12.1187 34.0578 12.0859 33.9922 12.1187 33.7562L18.0344 13.0375C18.1406 12.6625 18.2047 12.3297 18.2375 11.2953C18.2375 11.1562 18.3109 11.0922 18.4172 11.0922H22.7797C22.9188 11.0922 22.9906 11.125 23.0234 11.2953L29.6562 33.7891C29.6969 33.9594 29.6562 34.0578 29.4859 34.0578H26.0516C25.8719 34.0578 25.775 34.0172 25.7422 33.8781L24.0172 27.6031H17.3359L17.3422 27.6047ZM23.1531 24.2187C22.5672 21.9156 21.1922 16.8703 20.6797 14.4281H20.6391C20.2 16.8609 19.0922 20.9875 18.2391 24.2187H23.1531ZM32.5281 12.6391C32.5281 11.2969 33.4562 10.5062 34.6609 10.5062C35.9313 10.5062 36.7938 11.3687 36.7938 12.6391C36.7938 14.0141 35.8984 14.7719 34.6203 14.7719C33.375 14.7719 32.5203 14.0156 32.5203 12.6391H32.5281ZM32.7641 17.375C32.7641 17.2125 32.8297 17.1469 33 17.1469H36.2719C36.4594 17.1469 36.5234 17.2125 36.5234 17.3906V33.8375C36.5234 34.0078 36.4906 34.0734 36.2797 34.0734H33.0563C32.8453 34.0734 32.7797 33.975 32.7797 33.8047V17.3734L32.7641 17.375Z" fill="#FF71F5"/>
</g>
</svg>
