<svg width="42" height="36" viewBox="0 0 42 36" fill="none" xmlns="http://www.w3.org/2000/svg">
<g id="&#240;&#159;&#166;&#134; icon &#34;twitter&#34;">
<path id="Vector" d="M40.3197 3.57081L38.9259 3.01643C40.3197 3.57081 40.3197 3.57096 40.3196 3.57113L40.3194 3.57155L40.319 3.5727L40.3176 3.57618L40.3129 3.58782L40.2962 3.62924C40.2818 3.66471 40.261 3.71562 40.2343 3.78024C40.1808 3.90941 40.1034 4.09372 40.0054 4.3192C39.81 4.76917 39.531 5.38809 39.1966 6.06279C38.6702 7.12462 37.9351 8.4753 37.1139 9.4871C37.1436 9.77697 37.159 10.0683 37.1599 10.3601L37.1599 10.3649C37.1599 20.2796 32.3889 27.5408 25.5461 31.183C18.7398 34.8057 10.0348 34.7686 2.27154 30.4557C1.66432 30.1183 1.36815 29.4082 1.55572 28.7394C1.74329 28.0706 2.36552 27.618 3.0596 27.6456C5.91881 27.7593 8.74833 27.1702 11.3064 25.9475C8.75735 24.4161 6.9394 22.5847 5.68768 20.6083C4.06379 18.0443 3.44976 15.3267 3.33867 12.8826C3.22787 10.445 3.61512 8.24865 4.02279 6.67232C4.22753 5.88067 4.43989 5.23592 4.60339 4.7837C4.68522 4.55734 4.75507 4.37851 4.80597 4.25287C4.83143 4.19003 4.85217 4.14042 4.86734 4.10476L4.88581 4.06179L4.8917 4.0483L4.89379 4.04358L4.89461 4.04173C4.89495 4.04094 4.89527 4.04022 6.26599 4.64942L4.89527 4.04022C5.11474 3.54641 5.58286 3.20882 6.1207 3.15648C6.65854 3.10413 7.18296 3.34513 7.49353 3.78735C9.00121 5.9342 11.0164 7.67486 13.3597 8.85432L12.7638 10.0383L13.3597 8.85432C15.2666 9.81413 17.3426 10.378 19.463 10.5181V10.4234C19.441 8.62136 19.9718 6.85571 20.9842 5.3644L40.3197 3.57081ZM40.3197 3.57081C40.5568 2.97475 40.3886 2.29391 39.9013 1.87681C39.4139 1.45974 38.7154 1.39869 38.1631 1.72489L40.3197 3.57081ZM34.1883 3.77453C34.8496 3.49747 35.6251 3.1143 36.3492 2.73216C36.8593 2.46295 37.3151 2.20981 37.6434 2.02393C37.8072 1.93114 37.9387 1.85549 38.0285 1.80344C38.0733 1.77742 38.1078 1.75733 38.1306 1.74398L38.1559 1.7291L38.1618 1.72565L38.163 1.72496L34.1883 3.77453ZM34.1883 3.77453C33.1194 2.80882 31.8258 2.11592 30.418 1.76365L30.4179 1.76364C28.666 1.3253 26.8218 1.43555 25.1345 2.07954C23.4474 2.72349 21.9985 3.87006 20.9842 5.3643L34.1883 3.77453Z" stroke="#F5F5F5" stroke-width="3" stroke-linecap="round" stroke-linejoin="round"/>
</g>
</svg>
