<svg width="87" height="68" viewBox="0 0 87 68" fill="none" xmlns="http://www.w3.org/2000/svg">
<g id="&#240;&#159;&#166;&#134; icon &#34;opened folder&#34;" filter="url(#filter0_d_16_239)">
<path id="Vector" d="M67.7724 7.44599H37.9885L30.5425 0H11.9275C7.8322 0 4.48151 3.3507 4.48151 7.44599V52.1219C4.48151 56.2172 7.8322 59.5679 11.9275 59.5679H69.6339C72.7985 59.5679 75.2184 57.148 75.2184 53.9834V14.892C75.2184 10.7967 71.8677 7.44599 67.7724 7.44599Z" fill="#2C2FA8"/>
<path id="Vector_2" d="M19.2404 24.9368L19.2425 24.9254L19.2443 24.9139C19.7236 21.8784 22.456 19.615 25.5164 19.615H75.5907C79.6297 19.615 82.6689 23.3325 81.8715 27.1601L81.8686 27.1741L81.8661 27.1882L77.2123 53.2492L77.2106 53.2591L77.209 53.269C76.7297 56.3046 73.9973 58.5679 70.9369 58.5679H13.1256L19.2404 24.9368Z" fill="#B7CFFF" stroke="#2C2FA8" stroke-width="2"/>
</g>
<defs>
<filter id="filter0_d_16_239" x="0.481506" y="0" width="86.5184" height="67.5679" filterUnits="userSpaceOnUse" color-interpolation-filters="sRGB">
<feFlood flood-opacity="0" result="BackgroundImageFix"/>
<feColorMatrix in="SourceAlpha" type="matrix" values="0 0 0 0 0 0 0 0 0 0 0 0 0 0 0 0 0 0 127 0" result="hardAlpha"/>
<feOffset dy="4"/>
<feGaussianBlur stdDeviation="2"/>
<feComposite in2="hardAlpha" operator="out"/>
<feColorMatrix type="matrix" values="0 0 0 0 0 0 0 0 0 0 0 0 0 0 0 0 0 0 0.25 0"/>
<feBlend mode="normal" in2="BackgroundImageFix" result="effect1_dropShadow_16_239"/>
<feBlend mode="normal" in="SourceGraphic" in2="effect1_dropShadow_16_239" result="shape"/>
</filter>
</defs>
</svg>
