<svg width="35" height="50" viewBox="0 0 35 50" fill="none" xmlns="http://www.w3.org/2000/svg">
<g id="&#240;&#159;&#166;&#134; icon &#34;figma logo&#34;">
<path id="Vector" d="M29.8705 17.1297C31.5837 16.0706 32.9046 14.4817 33.633 12.604C34.3614 10.7262 34.4575 8.66218 33.9067 6.72491C33.3559 4.78764 32.1883 3.08288 30.5809 1.86925C28.9736 0.65562 27.0143 -0.000649953 25.0002 4.83023e-07H9.25934C7.24529 -0.000649953 5.28598 0.65562 3.67865 1.86925C2.07132 3.08288 0.903688 4.78764 0.352882 6.72491C-0.197923 8.66218 -0.10184 10.7262 0.626556 12.604C1.35495 14.4817 2.67591 16.0706 4.38903 17.1297C3.0472 17.9586 1.93958 19.1168 1.17139 20.4943C0.40321 21.8718 -2.27298e-05 23.4229 9.60969e-10 25.0001C2.27317e-05 26.5773 0.4033 28.1284 1.17152 29.5059C1.93975 30.8834 3.0474 32.0416 4.38926 32.8704C3.01759 33.7193 1.89154 34.9119 1.12269 36.33C0.353843 37.7481 -0.0311132 39.3425 0.00596494 40.9552C0.0430431 42.5679 0.500869 44.1429 1.33408 45.5242C2.16729 46.9054 3.34696 48.045 4.7562 48.83C6.16543 49.615 7.75532 50.0181 9.36833 49.9994C10.9813 49.9807 12.5615 49.5409 13.9521 48.7235C15.3428 47.9061 16.4958 46.7395 17.2968 45.3393C18.0978 43.9391 18.519 42.3539 18.5187 40.7408V31.6041C19.4476 32.5167 20.5587 33.2231 21.7793 33.6769C22.9999 34.1307 24.3025 34.3219 25.602 34.2378C26.9016 34.1538 28.1687 33.7964 29.3207 33.1891C30.4726 32.5818 31.4835 31.7383 32.2871 30.7136C33.0907 29.6889 33.6691 28.5061 33.9843 27.2426C34.2996 25.9791 34.3446 24.6633 34.1165 23.3812C33.8885 22.0991 33.3924 20.8796 32.6607 19.8023C31.929 18.7251 30.9783 17.8143 29.8705 17.1297ZM31.4818 9.25935C31.4798 10.977 30.797 12.6238 29.5828 13.8387C28.3687 15.0537 26.7224 15.7377 25.0048 15.7408L25.0002 15.7407L24.9913 15.7409L18.5187 15.7407V2.7778H25.0002C26.7186 2.77973 28.3661 3.46322 29.5812 4.67833C30.7964 5.89344 31.4798 7.54093 31.4818 9.25935ZM2.7778 9.25935C2.77973 7.54093 3.46322 5.89344 4.67833 4.67833C5.89344 3.46322 7.54092 2.77973 9.25934 2.7778H15.7409V15.7407H9.25934L9.25495 15.7408C7.53731 15.7377 5.89096 15.0537 4.67681 13.8387C3.46265 12.6238 2.77975 10.977 2.7778 9.25935ZM2.7778 25C2.77974 23.2824 3.46264 21.6356 4.6768 20.4206C5.89095 19.2056 7.5373 18.5216 9.25495 18.5186L9.25934 18.5187L15.7409 18.5185V31.4813L9.25934 31.4815C7.54092 31.4796 5.89344 30.7961 4.67833 29.581C3.46322 28.3659 2.77973 26.7184 2.7778 25ZM9.25934 47.2222C8.40773 47.2229 7.56432 47.0558 6.77733 46.7304C5.99033 46.405 5.27518 45.9277 4.67274 45.3258C4.0703 44.7238 3.5924 44.0091 3.26633 43.2224C2.94027 42.4356 2.77244 41.5924 2.77244 40.7408C2.77244 39.8892 2.94027 39.0459 3.26633 38.2592C3.5924 37.4725 4.0703 36.7577 4.67274 36.1558C5.27518 35.5538 5.99033 35.0765 6.77733 34.7511C7.56432 34.4257 8.40773 34.2586 9.25934 34.2593L15.7409 34.2592V40.7408C15.7389 42.4592 15.0554 44.1066 13.8403 45.3217C12.6252 46.5368 10.9777 47.2203 9.25934 47.2222ZM25.0002 31.4815C23.2823 31.481 21.6349 30.7986 20.42 29.5841C19.205 28.3696 18.5219 26.7225 18.5207 25.0046C18.5195 23.2867 19.2003 21.6386 20.4136 20.4224C21.6269 19.2063 23.2734 18.5215 24.9913 18.5187H25.0002L25.0046 18.5186C26.7225 18.5208 28.3693 19.205 29.583 20.4207C30.7967 21.6365 31.4782 23.2844 31.4776 25.0023C31.477 26.7202 30.7944 28.3675 29.5799 29.5825C28.3653 30.7974 26.7181 31.4804 25.0002 31.4815Z" fill="#FF71F5"/>
</g>
</svg>
