<svg width="50" height="49" viewBox="0 0 50 49" fill="none" xmlns="http://www.w3.org/2000/svg">
<g id="&#240;&#159;&#166;&#134; icon &#34;adobe after effects&#34;">
<path id="Vector" d="M0 0V48.7469H50V0H0ZM2.08281 2.08281H47.9156V46.6625H2.08281V2.08281ZM14.1359 27.6047L12.4844 33.8219C12.4516 33.9922 12.3781 34.0578 12.175 34.0578H9.11563C8.9125 34.0578 8.87969 33.9844 8.9125 33.7484L14.8281 13.0531C14.9266 12.6781 14.9984 12.3781 15.0312 11.3437C15.0312 11.2047 15.0969 11.1328 15.2016 11.1328H19.5719C19.7109 11.1328 19.775 11.1734 19.8078 11.3437L26.4406 33.7797C26.4734 33.95 26.4406 34.0484 26.2703 34.0484H22.8359C22.6656 34.0484 22.5594 33.9922 22.5266 33.8531L20.8094 27.5953H14.1359V27.6047ZM19.9781 24.2187C19.3922 21.9156 17.9766 16.8625 17.4641 14.4281H17.4312C16.9844 16.8609 15.8609 20.9875 14.9984 24.2187H19.9781ZM31.1437 26.3516C31.1844 29.175 32.5187 31.0641 35.6844 31.0641C36.9219 31.0641 37.9797 30.9016 39.0781 30.4125C39.2172 30.3469 39.3219 30.3875 39.3219 30.5594V33.1719C39.3219 33.375 39.2562 33.4812 39.1109 33.5875C38.0125 34.1328 36.6453 34.3766 34.9281 34.3766C29.4266 34.3766 27.3672 30.3234 27.3672 25.7828C27.3672 20.8672 29.9062 16.8469 34.3828 16.8469C38.9156 16.8469 40.4938 20.6641 40.4938 23.7562C40.4938 24.7578 40.4203 25.5797 40.3234 25.9609C40.2828 26.1313 40.2172 26.1891 40.0469 26.2219C39.6312 26.2953 38.3953 26.3609 36.5719 26.3609H31.1437V26.3516ZM35.3766 23.4859C36.4422 23.4859 36.8172 23.4859 36.9234 23.4531C36.9234 23.3141 36.9562 23.1922 36.9562 23.0953C36.9562 21.9562 36.4031 19.8719 34.2375 19.8719C32.2438 19.8719 31.3813 21.6297 31.1781 23.4859H35.3766Z" fill="#FF71F5"/>
</g>
</svg>
