<svg width="41" height="40" viewBox="0 0 41 40" fill="none" xmlns="http://www.w3.org/2000/svg">
<g id="&#240;&#159;&#166;&#134; icon &#34;facebook&#34;">
<g id="Group">
<path id="Vector" d="M30.541 21.3377L30.575 21.1807V21.02C30.575 20.6193 30.4763 20.1347 30.1805 19.7038C29.8539 19.2279 29.2871 18.84 28.55 18.84H25.5V16.4H28.725C29.1205 16.4 29.6946 16.3043 30.1639 15.8484C30.6413 15.3847 30.75 14.8025 30.75 14.39V10.31C30.75 9.89759 30.6413 9.31535 30.1639 8.8516C29.6946 8.39569 29.1205 8.30002 28.725 8.30002H24C20.2379 8.30002 17.25 11.1409 17.25 14.9V19.01H15.775C15.3795 19.01 14.8054 19.1057 14.3361 19.5616C13.8587 20.0253 13.75 20.6076 13.75 21.02V24.25C13.75 24.6625 13.8587 25.2447 14.3361 25.7084C14.8054 26.1643 15.3795 26.26 15.775 26.26H17.25V37V38.5H18.75H24H25.5V37V26.09H27.85C28.2957 26.09 28.691 25.921 28.9335 25.7797C29.0749 25.6973 29.2641 25.5672 29.4369 25.3734C29.5707 25.2235 29.7923 24.9238 29.8569 24.4944L30.541 21.3377Z" stroke="#F5F5F5" stroke-width="3" stroke-miterlimit="10" stroke-linecap="round"/>
<path id="Vector_2" d="M15.25 38.5H25.75C30.264 38.5 33.8133 37.6334 36.2014 35.3134C38.6004 32.9829 39.5 29.5074 39.5 25.1V14.9C39.5 10.4926 38.6004 7.01706 36.2014 4.68658C33.8133 2.36664 30.264 1.5 25.75 1.5H15.25C10.736 1.5 7.18675 2.36664 4.79857 4.68658C2.39955 7.01706 1.5 10.4926 1.5 14.9V25.1C1.5 29.5074 2.39955 32.9829 4.79857 35.3134C7.18675 37.6334 10.736 38.5 15.25 38.5Z" stroke="#F5F5F5" stroke-width="3" stroke-linecap="round" stroke-linejoin="round"/>
</g>
</g>
</svg>
