<svg width="50" height="49" viewBox="0 0 50 49" fill="none" xmlns="http://www.w3.org/2000/svg">
<g id="&#240;&#159;&#166;&#134; icon &#34;adobe photoshop&#34;">
<path id="Vector" d="M0 0V48.7469H50V0H0ZM2.08281 2.08281H47.9156V46.6625H2.08281V2.08281ZM12.0844 11.4172C12.0844 11.2781 12.3781 11.1734 12.5484 11.1734C13.8906 11.1078 15.8609 11.0672 17.9203 11.0672C23.6984 11.0672 25.9438 14.2328 25.9438 18.2859C25.9438 23.5844 22.1031 25.8547 17.3984 25.8547C16.6016 25.8547 16.3328 25.8141 15.7797 25.8141V33.8219C15.7797 33.9922 15.7141 34.0656 15.5437 34.0656H12.3203C12.15 34.0656 12.0844 34 12.0844 33.8297V11.4172ZM15.7797 22.4859C16.2594 22.5187 16.6422 22.5187 17.4719 22.5187C19.9047 22.5187 22.2 21.6562 22.2 18.3609C22.2 15.7156 20.5563 14.3734 17.7734 14.3734C16.9516 14.3734 16.1625 14.4062 15.7797 14.4391V22.4859ZM33.7156 20.0031C32.0641 20.0031 31.5109 20.8328 31.5109 21.5172C31.5109 22.2734 31.8859 22.7875 34.0906 23.9266C37.3547 25.5141 38.3875 27.0187 38.3875 29.2562C38.3875 32.5844 35.8406 34.375 32.4062 34.375C30.5828 34.375 29.0297 33.9922 28.1344 33.4797C28.0047 33.4141 27.9719 33.3094 27.9719 33.1375V30.0781C27.9719 29.875 28.0703 29.8016 28.2078 29.9078C29.5094 30.7703 31.0234 31.1453 32.3984 31.1453C34.05 31.1453 34.7344 30.4609 34.7344 29.5266C34.7344 28.7703 34.2547 28.1187 32.1625 27.0203C29.2 25.6047 27.9625 24.1641 27.9625 21.7547C27.9625 19.0687 30.0625 16.8391 33.7 16.8391C35.4906 16.8391 36.7516 17.1156 37.4438 17.4172C37.6141 17.5234 37.6469 17.6937 37.6469 17.8328V20.6891C37.6469 20.8594 37.5406 20.9656 37.3375 20.8922C36.4094 20.3469 35.0422 19.9969 33.7078 19.9969L33.7156 20.0031Z" fill="#FF71F5"/>
</g>
</svg>
